<svg xmlns="http://www.w3.org/2000/svg" xmlns:xlink="http://www.w3.org/1999/xlink" width="500" zoomAndPan="magnify" viewBox="0 0 375 359.999987" height="480" preserveAspectRatio="xMidYMid meet" version="1.0"><defs><clipPath id="c8063a3f2c"><path d="M 364.410156 86 L 374.988281 86 L 374.988281 99 L 364.410156 99 Z M 364.410156 86 " clip-rule="nonzero"/></clipPath><clipPath id="4c1e675ab7"><path d="M 365.347656 144.039062 L 374.988281 144.039062 L 374.988281 159 L 365.347656 159 Z M 365.347656 144.039062 " clip-rule="nonzero"/></clipPath><clipPath id="d095b17586"><path d="M 361 320.105469 L 374.988281 320.105469 L 374.988281 330 L 361 330 Z M 361 320.105469 " clip-rule="nonzero"/></clipPath><clipPath id="9be8e870c6"><path d="M 296.007812 340 L 305 340 L 305 354.4375 L 296.007812 354.4375 Z M 296.007812 340 " clip-rule="nonzero"/></clipPath><clipPath id="cc77aef271"><path d="M 325.054688 343.519531 L 338 343.519531 L 338 354.4375 L 325.054688 354.4375 Z M 325.054688 343.519531 " clip-rule="nonzero"/></clipPath><clipPath id="8b0bb16536"><path d="M 361.601562 344.453125 L 374.988281 344.453125 L 374.988281 354.4375 L 361.601562 354.4375 Z M 361.601562 344.453125 " clip-rule="nonzero"/></clipPath><clipPath id="8d876caaee"><path d="M 148 345.390625 L 162.949219 345.390625 L 162.949219 354.4375 L 148 354.4375 Z M 148 345.390625 " clip-rule="nonzero"/></clipPath><clipPath id="948356c5bd"><path d="M 181.691406 340 L 191 340 L 191 354.4375 L 181.691406 354.4375 Z M 181.691406 340 " clip-rule="nonzero"/></clipPath><clipPath id="7840157929"><path d="M 215.421875 344.453125 L 229 344.453125 L 229 354.4375 L 215.421875 354.4375 Z M 215.421875 344.453125 " clip-rule="nonzero"/></clipPath><clipPath id="f853199a3e"><path d="M 251.96875 345.390625 L 266.960938 345.390625 L 266.960938 354.4375 L 251.96875 354.4375 Z M 251.96875 345.390625 " clip-rule="nonzero"/></clipPath><clipPath id="de1bb8b9f6"><path d="M 0.84375 340 L 10 340 L 10 354.4375 L 0.84375 354.4375 Z M 0.84375 340 " clip-rule="nonzero"/></clipPath><clipPath id="c2766dfaa2"><path d="M 32.703125 345.390625 L 46.757812 345.390625 L 46.757812 354.4375 L 32.703125 354.4375 Z M 32.703125 345.390625 " clip-rule="nonzero"/></clipPath><clipPath id="a35dd6106a"><path d="M 71.121094 340 L 80.492188 340 L 80.492188 354.4375 L 71.121094 354.4375 Z M 71.121094 340 " clip-rule="nonzero"/></clipPath><clipPath id="dbf290fd24"><path d="M 106 343 L 118.910156 343 L 118.910156 354.4375 L 106 354.4375 Z M 106 343 " clip-rule="nonzero"/></clipPath><clipPath id="bb1f88129c"><path d="M 363.472656 30.71875 L 374.988281 30.71875 L 374.988281 42.890625 L 363.472656 42.890625 Z M 363.472656 30.71875 " clip-rule="nonzero"/></clipPath><clipPath id="ca1dfc6150"><path d="M 366.285156 198.355469 L 374.988281 198.355469 L 374.988281 213 L 366.285156 213 Z M 366.285156 198.355469 " clip-rule="nonzero"/></clipPath><clipPath id="91326ea44c"><path d="M 361 261.101562 L 374.988281 261.101562 L 374.988281 270 L 361 270 Z M 361 261.101562 " clip-rule="nonzero"/></clipPath></defs><path fill="#231f20" d="M 40.929688 72.886719 C 46.300781 71.351562 50.667969 68.128906 50.539062 65.238281 C 50.4375 62.914062 47.839844 60.695312 45.53125 60.953125 C 42.652344 61.273438 40.144531 66.085938 39.457031 71.625 C 39.292969 72.933594 39.660156 73.25 40.929688 72.886719 " fill-opacity="1" fill-rule="evenodd"/><path fill="#231f20" d="M 85.152344 62.808594 C 80.445312 59.800781 75.140625 58.664062 73.058594 60.675781 C 71.382812 62.292969 71.4375 65.707031 73.164062 67.265625 C 75.3125 69.210938 80.578125 67.898438 85.1875 64.742188 C 86.273438 63.996094 86.265625 63.515625 85.152344 62.808594 " fill-opacity="1" fill-rule="evenodd"/><path fill="#231f20" d="M 22.273438 86.839844 C 19.191406 91.496094 17.96875 96.777344 19.949219 98.898438 C 21.539062 100.59375 24.949219 100.59375 26.542969 98.898438 C 28.523438 96.777344 27.296875 91.496094 24.214844 86.839844 C 23.484375 85.742188 23.003906 85.742188 22.273438 86.839844 " fill-opacity="1" fill-rule="evenodd"/><path fill="#231f20" d="M 64.707031 97.695312 C 64.601562 92.105469 62.609375 87.0625 59.777344 86.449219 C 57.503906 85.949219 54.691406 87.886719 54.347656 90.1875 C 53.921875 93.050781 57.929688 96.707031 63.113281 98.792969 C 64.335938 99.285156 64.734375 99.011719 64.707031 97.695312 " fill-opacity="1" fill-rule="evenodd"/><path fill="#231f20" d="M 92.078125 96.40625 C 97.570312 97.445312 102.917969 96.527344 104.101562 93.882812 C 105.050781 91.761719 103.730469 88.613281 101.546875 87.808594 C 98.828125 86.804688 94.433594 89.976562 91.328125 94.621094 C 90.597656 95.71875 90.785156 96.164062 92.078125 96.40625 " fill-opacity="1" fill-rule="evenodd"/><path fill="#231f20" d="M 8.449219 117.03125 C 3.605469 119.816406 0.144531 123.988281 0.964844 126.765625 C 1.625 128.996094 4.679688 130.527344 6.859375 129.71875 C 9.582031 128.714844 10.851562 123.445312 10.183594 117.898438 C 10.023438 116.59375 9.589844 116.375 8.449219 117.03125 " fill-opacity="1" fill-rule="evenodd"/><path fill="#231f20" d="M 37.917969 117.308594 C 37.484375 122.878906 38.980469 128.089844 41.734375 128.980469 C 43.949219 129.691406 46.9375 128.039062 47.5 125.78125 C 48.203125 122.972656 44.570312 118.949219 39.613281 116.371094 C 38.445312 115.761719 38.019531 115.996094 37.917969 117.308594 " fill-opacity="1" fill-rule="evenodd"/><path fill="#231f20" d="M 77.945312 116.054688 C 74.863281 120.710938 73.640625 125.996094 75.621094 128.109375 C 77.207031 129.804688 80.621094 129.804688 82.210938 128.109375 C 84.191406 125.996094 82.96875 120.710938 79.882812 116.054688 C 79.160156 114.953125 78.671875 114.953125 77.945312 116.054688 " fill-opacity="1" fill-rule="evenodd"/><path fill="#231f20" d="M 29.515625 150.652344 C 24.90625 147.496094 19.640625 146.1875 17.492188 148.132812 C 15.765625 149.691406 15.714844 153.105469 17.386719 154.71875 C 19.46875 156.734375 24.773438 155.59375 29.484375 152.589844 C 30.59375 151.878906 30.605469 151.398438 29.515625 150.652344 " fill-opacity="1" fill-rule="evenodd"/><path fill="#231f20" d="M 61.816406 145.363281 C 57.207031 148.519531 54.082031 152.949219 55.117188 155.652344 C 55.949219 157.824219 59.109375 159.113281 61.226562 158.136719 C 63.855469 156.921875 64.710938 151.570312 63.613281 146.09375 C 63.355469 144.800781 62.90625 144.617188 61.816406 145.363281 " fill-opacity="1" fill-rule="evenodd"/><path fill="#231f20" d="M 96.503906 145.265625 C 93.421875 149.921875 92.195312 155.207031 94.175781 157.324219 C 95.765625 159.023438 99.179688 159.023438 100.769531 157.324219 C 102.75 155.207031 101.523438 149.921875 98.441406 145.265625 C 97.714844 144.167969 97.230469 144.167969 96.503906 145.265625 " fill-opacity="1" fill-rule="evenodd"/><path fill="#231f20" d="M 10.804688 172.273438 C 5.367188 173.550781 0.855469 176.558594 0.84375 179.457031 C 0.835938 181.785156 3.324219 184.121094 5.644531 183.976562 C 8.539062 183.789062 11.269531 179.101562 12.214844 173.597656 C 12.4375 172.300781 12.085938 171.96875 10.804688 172.273438 " fill-opacity="1" fill-rule="evenodd"/><path fill="#231f20" d="M 35.472656 180.90625 C 39.703125 184.550781 44.796875 186.433594 47.140625 184.734375 C 49.03125 183.375 49.460938 179.992188 47.976562 178.199219 C 46.128906 175.96875 40.730469 176.515625 35.71875 178.980469 C 34.535156 179.566406 34.472656 180.046875 35.472656 180.90625 " fill-opacity="1" fill-rule="evenodd"/><path fill="#231f20" d="M 75.457031 175.035156 C 74.609375 180.554688 75.707031 185.863281 78.390625 186.957031 C 80.546875 187.835938 83.644531 186.402344 84.378906 184.199219 C 85.289062 181.445312 81.964844 177.164062 77.21875 174.222656 C 76.09375 173.53125 75.65625 173.730469 75.457031 175.035156 " fill-opacity="1" fill-rule="evenodd"/><path fill="#231f20" d="M 189.042969 62.808594 C 184.332031 59.800781 179.03125 58.664062 176.945312 60.675781 C 175.273438 62.292969 175.328125 65.707031 177.054688 67.265625 C 179.203125 69.210938 184.46875 67.898438 189.078125 64.742188 C 190.164062 63.996094 190.15625 63.515625 189.042969 62.808594 " fill-opacity="1" fill-rule="evenodd"/><path fill="#231f20" d="M 126.164062 86.839844 C 123.082031 91.496094 121.855469 96.777344 123.839844 98.898438 C 125.429688 100.59375 128.839844 100.59375 130.433594 98.898438 C 132.410156 96.777344 131.1875 91.496094 128.105469 86.839844 C 127.375 85.742188 126.890625 85.742188 126.164062 86.839844 " fill-opacity="1" fill-rule="evenodd"/><path fill="#231f20" d="M 168.597656 97.695312 C 168.492188 92.105469 166.5 87.0625 163.667969 86.449219 C 161.394531 85.949219 158.582031 87.886719 158.238281 90.1875 C 157.8125 93.050781 161.820312 96.707031 167 98.792969 C 168.222656 99.285156 168.625 99.011719 168.597656 97.695312 " fill-opacity="1" fill-rule="evenodd"/><path fill="#231f20" d="M 195.96875 96.40625 C 201.460938 97.445312 206.808594 96.527344 207.988281 93.882812 C 208.941406 91.761719 207.621094 88.613281 205.4375 87.808594 C 202.71875 86.804688 198.320312 89.976562 195.21875 94.621094 C 194.488281 95.71875 194.671875 96.164062 195.96875 96.40625 " fill-opacity="1" fill-rule="evenodd"/><path fill="#231f20" d="M 111.761719 117.03125 C 106.917969 119.816406 103.457031 123.988281 104.277344 126.765625 C 104.9375 128.996094 107.992188 130.527344 110.171875 129.71875 C 112.890625 128.714844 114.160156 123.445312 113.496094 117.898438 C 113.339844 116.59375 112.90625 116.375 111.761719 117.03125 " fill-opacity="1" fill-rule="evenodd"/><path fill="#231f20" d="M 141.808594 117.308594 C 141.375 122.878906 142.867188 128.089844 145.625 128.980469 C 147.839844 129.691406 150.828125 128.039062 151.390625 125.78125 C 152.09375 122.972656 148.457031 118.949219 143.503906 116.371094 C 142.332031 115.761719 141.910156 115.996094 141.808594 117.308594 " fill-opacity="1" fill-rule="evenodd"/><path fill="#231f20" d="M 181.835938 116.054688 C 178.753906 120.710938 177.527344 125.996094 179.507812 128.109375 C 181.097656 129.804688 184.511719 129.804688 186.101562 128.109375 C 188.082031 125.996094 186.859375 120.710938 183.773438 116.054688 C 183.046875 114.953125 182.566406 114.953125 181.835938 116.054688 " fill-opacity="1" fill-rule="evenodd"/><path fill="#231f20" d="M 133.402344 150.652344 C 128.796875 147.496094 123.53125 146.1875 121.382812 148.132812 C 119.660156 149.691406 119.605469 153.105469 121.277344 154.71875 C 123.363281 156.734375 128.664062 155.59375 133.375 152.589844 C 134.484375 151.878906 134.496094 151.398438 133.402344 150.652344 " fill-opacity="1" fill-rule="evenodd"/><path fill="#231f20" d="M 165.707031 145.363281 C 161.097656 148.519531 157.972656 152.949219 159.007812 155.652344 C 159.84375 157.824219 163 159.113281 165.117188 158.136719 C 167.746094 156.921875 168.601562 151.570312 167.503906 146.09375 C 167.242188 144.800781 166.796875 144.617188 165.707031 145.363281 " fill-opacity="1" fill-rule="evenodd"/><path fill="#231f20" d="M 200.394531 145.265625 C 197.3125 149.921875 196.085938 155.207031 198.066406 157.324219 C 199.65625 159.023438 203.070312 159.023438 204.660156 157.324219 C 206.640625 155.207031 205.414062 149.921875 202.332031 145.265625 C 201.605469 144.167969 201.121094 144.167969 200.394531 145.265625 " fill-opacity="1" fill-rule="evenodd"/><path fill="#231f20" d="M 116.65625 172.273438 C 111.214844 173.550781 106.703125 176.558594 106.695312 179.457031 C 106.6875 181.785156 109.171875 184.121094 111.496094 183.976562 C 114.390625 183.789062 117.121094 179.101562 118.066406 173.597656 C 118.289062 172.300781 117.9375 171.96875 116.65625 172.273438 " fill-opacity="1" fill-rule="evenodd"/><path fill="#231f20" d="M 139.363281 180.90625 C 143.597656 184.550781 148.6875 186.433594 151.03125 184.734375 C 152.921875 183.375 153.351562 179.992188 151.867188 178.199219 C 150.019531 175.96875 144.617188 176.515625 139.609375 178.980469 C 138.425781 179.566406 138.363281 180.046875 139.363281 180.90625 " fill-opacity="1" fill-rule="evenodd"/><path fill="#231f20" d="M 179.34375 175.035156 C 178.496094 180.554688 179.597656 185.863281 182.28125 186.957031 C 184.4375 187.835938 187.535156 186.40625 188.269531 184.199219 C 189.179688 181.449219 185.855469 177.164062 181.105469 174.222656 C 179.984375 173.53125 179.546875 173.730469 179.34375 175.035156 " fill-opacity="1" fill-rule="evenodd"/><path fill="#231f20" d="M 56.089844 209.5625 C 61.671875 209.375 66.691406 207.316406 67.269531 204.476562 C 67.734375 202.195312 65.757812 199.417969 63.453125 199.105469 C 60.578125 198.71875 56.980469 202.773438 54.96875 207.984375 C 54.492188 209.214844 54.769531 209.605469 56.089844 209.5625 " fill-opacity="1" fill-rule="evenodd"/><path fill="#231f20" d="M 96.34375 199.804688 C 94.222656 204.96875 94.046875 210.390625 96.394531 212.082031 C 98.285156 213.441406 101.632812 212.78125 102.867188 210.808594 C 104.394531 208.351562 102.171875 203.40625 98.246094 199.429688 C 97.320312 198.492188 96.84375 198.585938 96.34375 199.804688 " fill-opacity="1" fill-rule="evenodd"/><path fill="#231f20" d="M 141.09375 204.082031 C 136.382812 201.078125 131.078125 199.941406 128.996094 201.953125 C 127.324219 203.570312 127.378906 206.976562 129.101562 208.539062 C 131.25 210.484375 136.515625 209.171875 141.128906 206.015625 C 142.214844 205.273438 142.207031 204.789062 141.09375 204.082031 " fill-opacity="1" fill-rule="evenodd"/><path fill="#231f20" d="M 78.214844 228.117188 C 75.132812 232.773438 73.90625 238.054688 75.890625 240.171875 C 77.480469 241.871094 80.890625 241.871094 82.480469 240.171875 C 84.460938 238.054688 83.234375 232.773438 80.152344 228.117188 C 79.425781 227.019531 78.941406 227.019531 78.214844 228.117188 " fill-opacity="1" fill-rule="evenodd"/><path fill="#231f20" d="M 120.648438 238.96875 C 120.542969 233.382812 118.550781 228.339844 115.71875 227.722656 C 113.445312 227.222656 110.632812 229.164062 110.289062 231.460938 C 109.859375 234.324219 113.867188 237.980469 119.050781 240.0625 C 120.273438 240.558594 120.671875 240.285156 120.648438 238.96875 " fill-opacity="1" fill-rule="evenodd"/><path fill="#231f20" d="M 148.019531 237.683594 C 153.511719 238.71875 158.859375 237.800781 160.039062 235.160156 C 160.992188 233.035156 159.671875 229.890625 157.488281 229.082031 C 154.769531 228.078125 150.371094 231.25 147.269531 235.898438 C 146.535156 236.992188 146.722656 237.4375 148.019531 237.683594 " fill-opacity="1" fill-rule="evenodd"/><path fill="#231f20" d="M 63.8125 258.308594 C 58.96875 261.09375 55.507812 265.265625 56.328125 268.042969 C 56.988281 270.273438 60.042969 271.800781 62.222656 270.996094 C 64.941406 269.988281 66.210938 264.71875 65.546875 259.175781 C 65.390625 257.867188 64.957031 257.648438 63.8125 258.308594 " fill-opacity="1" fill-rule="evenodd"/><path fill="#231f20" d="M 93.859375 258.585938 C 93.421875 264.152344 94.917969 269.363281 97.675781 270.257812 C 99.890625 270.96875 102.878906 269.3125 103.441406 267.058594 C 104.144531 264.246094 100.507812 260.222656 95.554688 257.644531 C 94.386719 257.035156 93.960938 257.269531 93.859375 258.585938 " fill-opacity="1" fill-rule="evenodd"/><path fill="#231f20" d="M 133.886719 257.328125 C 130.804688 261.988281 129.578125 267.269531 131.558594 269.386719 C 133.148438 271.082031 136.5625 271.082031 138.152344 269.386719 C 140.132812 267.269531 138.910156 261.988281 135.824219 257.328125 C 135.097656 256.230469 134.617188 256.230469 133.886719 257.328125 " fill-opacity="1" fill-rule="evenodd"/><path fill="#231f20" d="M 85.453125 291.929688 C 80.847656 288.769531 75.582031 287.464844 73.433594 289.40625 C 71.710938 290.96875 71.65625 294.382812 73.328125 295.996094 C 75.410156 298.007812 80.714844 296.871094 85.425781 293.863281 C 86.539062 293.152344 86.546875 292.671875 85.453125 291.929688 " fill-opacity="1" fill-rule="evenodd"/><path fill="#231f20" d="M 117.757812 286.636719 C 113.148438 289.792969 110.023438 294.226562 111.058594 296.929688 C 111.890625 299.101562 115.050781 300.386719 117.167969 299.414062 C 119.796875 298.199219 120.652344 292.84375 119.554688 287.371094 C 119.292969 286.074219 118.847656 285.894531 117.757812 286.636719 " fill-opacity="1" fill-rule="evenodd"/><path fill="#231f20" d="M 152.445312 286.542969 C 149.359375 291.199219 148.136719 296.484375 150.117188 298.597656 C 151.707031 300.292969 155.121094 300.292969 156.707031 298.597656 C 158.6875 296.484375 157.464844 291.199219 154.382812 286.542969 C 153.652344 285.445312 153.167969 285.445312 152.445312 286.542969 " fill-opacity="1" fill-rule="evenodd"/><path fill="#231f20" d="M 68.703125 313.546875 C 63.265625 314.828125 58.753906 317.835938 58.746094 320.734375 C 58.738281 323.058594 61.222656 325.394531 63.546875 325.25 C 66.4375 325.0625 69.167969 320.375 70.117188 314.875 C 70.339844 313.574219 69.984375 313.246094 68.703125 313.546875 " fill-opacity="1" fill-rule="evenodd"/><path fill="#231f20" d="M 93.789062 317.40625 C 93.746094 322.988281 95.605469 328.082031 98.414062 328.777344 C 100.671875 329.335938 103.535156 327.472656 103.941406 325.183594 C 104.449219 322.328125 100.539062 318.570312 95.414062 316.347656 C 94.203125 315.824219 93.796875 316.085938 93.789062 317.40625 " fill-opacity="1" fill-rule="evenodd"/><path fill="#231f20" d="M 128.054688 320.664062 C 131.714844 324.882812 136.480469 327.480469 139.046875 326.140625 C 141.113281 325.070312 142.027344 321.78125 140.820312 319.792969 C 139.3125 317.320312 133.890625 317.082031 128.574219 318.796875 C 127.320312 319.203125 127.191406 319.667969 128.054688 320.664062 " fill-opacity="1" fill-rule="evenodd"/><path fill="#231f20" d="M 159.976562 209.5625 C 165.5625 209.375 170.582031 207.316406 171.160156 204.476562 C 171.625 202.195312 169.648438 199.417969 167.34375 199.105469 C 164.46875 198.71875 160.871094 202.773438 158.859375 207.984375 C 158.382812 209.214844 158.660156 209.605469 159.976562 209.5625 " fill-opacity="1" fill-rule="evenodd"/><path fill="#231f20" d="M 199.832031 213.21875 C 204.3125 209.875 207.246094 205.320312 206.101562 202.660156 C 205.179688 200.523438 201.96875 199.371094 199.898438 200.433594 C 197.316406 201.753906 196.683594 207.140625 198.007812 212.566406 C 198.324219 213.84375 198.777344 214.007812 199.832031 213.21875 " fill-opacity="1" fill-rule="evenodd"/><path fill="#231f20" d="M 244.984375 204.082031 C 240.273438 201.078125 234.96875 199.941406 232.886719 201.953125 C 231.214844 203.570312 231.269531 206.976562 232.992188 208.539062 C 235.140625 210.484375 240.40625 209.171875 245.015625 206.015625 C 246.105469 205.273438 246.097656 204.789062 244.984375 204.082031 " fill-opacity="1" fill-rule="evenodd"/><path fill="#231f20" d="M 182.105469 228.117188 C 179.023438 232.773438 177.800781 238.054688 179.78125 240.171875 C 181.367188 241.871094 184.78125 241.871094 186.371094 240.171875 C 188.351562 238.054688 187.125 232.773438 184.042969 228.117188 C 183.316406 227.019531 182.832031 227.019531 182.105469 228.117188 " fill-opacity="1" fill-rule="evenodd"/><path fill="#231f20" d="M 224.539062 238.96875 C 224.429688 233.382812 222.441406 228.339844 219.605469 227.722656 C 217.335938 227.222656 214.523438 229.164062 214.179688 231.460938 C 213.75 234.324219 217.757812 237.980469 222.941406 240.0625 C 224.164062 240.558594 224.5625 240.285156 224.539062 238.96875 " fill-opacity="1" fill-rule="evenodd"/><path fill="#231f20" d="M 251.910156 237.683594 C 257.398438 238.71875 262.746094 237.800781 263.933594 235.160156 C 264.882812 233.035156 263.558594 229.890625 261.378906 229.082031 C 258.660156 228.078125 254.257812 231.25 251.160156 235.898438 C 250.425781 236.992188 250.613281 237.4375 251.910156 237.683594 " fill-opacity="1" fill-rule="evenodd"/><path fill="#231f20" d="M 171.480469 262.691406 C 166.226562 260.804688 160.800781 260.867188 159.210938 263.289062 C 157.9375 265.234375 158.746094 268.546875 160.777344 269.6875 C 163.296875 271.113281 168.144531 268.671875 171.941406 264.574219 C 172.839844 263.609375 172.722656 263.136719 171.480469 262.691406 " fill-opacity="1" fill-rule="evenodd"/><path fill="#231f20" d="M 197.746094 258.585938 C 197.316406 264.152344 198.808594 269.363281 201.566406 270.257812 C 203.78125 270.96875 206.765625 269.3125 207.332031 267.058594 C 208.035156 264.246094 204.398438 260.222656 199.441406 257.644531 C 198.269531 257.035156 197.851562 257.269531 197.746094 258.585938 " fill-opacity="1" fill-rule="evenodd"/><path fill="#231f20" d="M 237.777344 257.328125 C 234.695312 261.988281 233.46875 267.269531 235.449219 269.386719 C 237.039062 271.082031 240.453125 271.082031 242.042969 269.386719 C 244.019531 267.269531 242.796875 261.988281 239.714844 257.328125 C 238.988281 256.230469 238.503906 256.230469 237.777344 257.328125 " fill-opacity="1" fill-rule="evenodd"/><path fill="#231f20" d="M 189.34375 291.929688 C 184.734375 288.769531 179.472656 287.464844 177.324219 289.40625 C 175.597656 290.96875 175.542969 294.382812 177.21875 295.996094 C 179.300781 298.007812 184.605469 296.871094 189.316406 293.863281 C 190.421875 293.152344 190.429688 292.671875 189.34375 291.929688 " fill-opacity="1" fill-rule="evenodd"/><path fill="#231f20" d="M 221.648438 286.636719 C 217.039062 289.792969 213.910156 294.226562 214.949219 296.929688 C 215.78125 299.101562 218.945312 300.386719 221.058594 299.414062 C 223.683594 298.199219 224.542969 292.84375 223.441406 287.371094 C 223.183594 286.074219 222.738281 285.894531 221.648438 286.636719 " fill-opacity="1" fill-rule="evenodd"/><path fill="#231f20" d="M 256.335938 286.542969 C 253.25 291.199219 252.027344 296.484375 254.007812 298.597656 C 255.59375 300.292969 259.011719 300.292969 260.597656 298.597656 C 262.578125 296.484375 261.355469 291.199219 258.269531 286.542969 C 257.542969 285.445312 257.0625 285.445312 256.335938 286.542969 " fill-opacity="1" fill-rule="evenodd"/><path fill="#231f20" d="M 172.59375 313.546875 C 167.15625 314.828125 162.640625 317.835938 162.636719 320.734375 C 162.628906 323.058594 165.113281 325.394531 167.4375 325.25 C 170.328125 325.0625 173.054688 320.375 174.007812 314.875 C 174.230469 313.574219 173.875 313.246094 172.59375 313.546875 " fill-opacity="1" fill-rule="evenodd"/><path fill="#231f20" d="M 197.679688 317.40625 C 197.632812 322.988281 199.492188 328.082031 202.304688 328.773438 C 204.5625 329.335938 207.425781 327.472656 207.832031 325.183594 C 208.335938 322.328125 204.429688 318.570312 199.304688 316.347656 C 198.09375 315.820312 197.6875 316.085938 197.679688 317.40625 " fill-opacity="1" fill-rule="evenodd"/><path fill="#231f20" d="M 234.109375 326.316406 C 239.695312 326.257812 244.761719 324.308594 245.402344 321.484375 C 245.917969 319.214844 244.003906 316.390625 241.703125 316.027344 C 238.839844 315.574219 235.152344 319.550781 233.023438 324.714844 C 232.519531 325.933594 232.792969 326.332031 234.109375 326.316406 " fill-opacity="1" fill-rule="evenodd"/><path fill="#231f20" d="M 185.804688 9.804688 C 181.191406 6.648438 175.929688 5.34375 173.78125 7.285156 C 172.054688 8.847656 172 12.257812 173.675781 13.875 C 175.761719 15.886719 181.0625 14.75 185.773438 11.742188 C 186.878906 11.03125 186.890625 10.550781 185.804688 9.804688 " fill-opacity="1" fill-rule="evenodd"/><path fill="#231f20" d="M 218.101562 6.808594 C 213.496094 9.964844 210.367188 14.394531 211.40625 17.101562 C 212.238281 19.269531 215.402344 20.558594 217.511719 19.582031 C 220.140625 18.367188 221 13.015625 219.898438 7.539062 C 219.640625 6.246094 219.195312 6.0625 218.101562 6.808594 " fill-opacity="1" fill-rule="evenodd"/><path fill="#231f20" d="M 252.792969 7.195312 C 249.710938 11.851562 248.484375 17.132812 250.464844 19.253906 C 252.050781 20.949219 255.46875 20.949219 257.054688 19.253906 C 259.035156 17.132812 257.808594 11.851562 254.726562 7.195312 C 254.003906 6.097656 253.515625 6.097656 252.792969 7.195312 " fill-opacity="1" fill-rule="evenodd"/><path fill="#231f20" d="M 169.050781 30.945312 C 163.613281 32.222656 159.097656 35.234375 159.09375 38.128906 C 159.085938 40.457031 161.570312 42.792969 163.894531 42.648438 C 166.785156 42.460938 169.515625 37.773438 170.464844 32.273438 C 170.6875 30.972656 170.335938 30.644531 169.050781 30.945312 " fill-opacity="1" fill-rule="evenodd"/><path fill="#231f20" d="M 191.761719 39.578125 C 195.996094 43.222656 201.078125 45.105469 203.429688 43.40625 C 205.316406 42.046875 205.75 38.664062 204.261719 36.871094 C 202.414062 34.640625 197.015625 35.1875 192.003906 37.65625 C 190.824219 38.238281 190.761719 38.71875 191.761719 39.578125 " fill-opacity="1" fill-rule="evenodd"/><path fill="#231f20" d="M 230.566406 43.714844 C 236.152344 43.652344 241.214844 41.707031 241.859375 38.882812 C 242.375 36.613281 240.460938 33.785156 238.160156 33.425781 C 235.300781 32.972656 231.609375 36.949219 229.480469 42.113281 C 228.976562 43.332031 229.25 43.730469 230.566406 43.714844 " fill-opacity="1" fill-rule="evenodd"/><path fill="#231f20" d="M 289.695312 9.804688 C 285.082031 6.648438 279.820312 5.34375 277.671875 7.285156 C 275.945312 8.847656 275.890625 12.257812 277.5625 13.875 C 279.648438 15.886719 284.949219 14.75 289.660156 11.742188 C 290.769531 11.03125 290.78125 10.550781 289.695312 9.804688 " fill-opacity="1" fill-rule="evenodd"/><path fill="#231f20" d="M 321.992188 6.808594 C 317.382812 9.964844 314.257812 14.394531 315.292969 17.101562 C 316.128906 19.269531 319.292969 20.558594 321.402344 19.582031 C 324.035156 18.367188 324.886719 13.015625 323.789062 7.539062 C 323.53125 6.246094 323.082031 6.0625 321.992188 6.808594 " fill-opacity="1" fill-rule="evenodd"/><path fill="#231f20" d="M 356.679688 7.195312 C 353.597656 11.851562 352.371094 17.132812 354.351562 19.253906 C 355.941406 20.949219 359.355469 20.949219 360.945312 19.253906 C 362.925781 17.132812 361.699219 11.851562 358.617188 7.195312 C 357.890625 6.097656 357.40625 6.097656 356.679688 7.195312 " fill-opacity="1" fill-rule="evenodd"/><path fill="#231f20" d="M 272.941406 30.945312 C 267.503906 32.222656 262.988281 35.234375 262.980469 38.128906 C 262.972656 40.457031 265.460938 42.792969 267.785156 42.648438 C 270.675781 42.460938 273.40625 37.773438 274.355469 32.273438 C 274.578125 30.972656 274.226562 30.644531 272.941406 30.945312 " fill-opacity="1" fill-rule="evenodd"/><path fill="#231f20" d="M 300.613281 33.558594 C 298.113281 38.554688 297.535156 43.945312 299.757812 45.808594 C 301.539062 47.304688 304.929688 46.890625 306.300781 45.015625 C 308.011719 42.675781 306.15625 37.578125 302.539062 33.324219 C 301.683594 32.324219 301.203125 32.382812 300.613281 33.558594 " fill-opacity="1" fill-rule="evenodd"/><path fill="#231f20" d="M 334.457031 43.714844 C 340.042969 43.652344 345.105469 41.707031 345.746094 38.882812 C 346.265625 36.613281 344.347656 33.785156 342.050781 33.425781 C 339.1875 32.972656 335.5 36.949219 333.367188 42.113281 C 332.867188 43.332031 333.136719 43.730469 334.457031 43.714844 " fill-opacity="1" fill-rule="evenodd"/><path fill="#231f20" d="M 219.070312 56.660156 C 214.375 59.6875 211.132812 64.035156 212.097656 66.765625 C 212.871094 68.960938 216 70.328125 218.136719 69.410156 C 220.796875 68.265625 221.800781 62.9375 220.84375 57.433594 C 220.621094 56.136719 220.179688 55.941406 219.070312 56.660156 " fill-opacity="1" fill-rule="evenodd"/><path fill="#231f20" d="M 248.054688 62.128906 C 250.625 67.085938 254.644531 70.726562 257.453125 70.03125 C 259.714844 69.46875 261.378906 66.492188 260.667969 64.277344 C 259.785156 61.515625 254.570312 60.011719 249.003906 60.433594 C 247.683594 60.535156 247.449219 60.957031 248.054688 62.128906 " fill-opacity="1" fill-rule="evenodd"/><path fill="#231f20" d="M 290.558594 70.511719 C 294.289062 66.359375 296.277344 61.316406 294.628906 58.929688 C 293.304688 57.015625 289.929688 56.515625 288.105469 57.964844 C 285.835938 59.765625 286.273438 65.171875 288.640625 70.230469 C 289.195312 71.421875 289.675781 71.492188 290.558594 70.511719 " fill-opacity="1" fill-rule="evenodd"/><path fill="#231f20" d="M 234.5 86.789062 C 231.417969 91.445312 230.195312 96.726562 232.175781 98.84375 C 233.765625 100.542969 237.179688 100.542969 238.769531 98.84375 C 240.75 96.726562 239.523438 91.445312 236.441406 86.789062 C 235.710938 85.691406 235.230469 85.691406 234.5 86.789062 " fill-opacity="1" fill-rule="evenodd"/><path fill="#231f20" d="M 276.933594 97.640625 C 276.828125 92.054688 274.835938 87.011719 272.003906 86.394531 C 269.730469 85.898438 266.921875 87.835938 266.574219 90.132812 C 266.148438 93 270.15625 96.652344 275.339844 98.738281 C 276.5625 99.230469 276.960938 98.957031 276.933594 97.640625 " fill-opacity="1" fill-rule="evenodd"/><path fill="#231f20" d="M 304.304688 96.355469 C 309.796875 97.390625 315.144531 96.476562 316.328125 93.832031 C 317.277344 91.707031 315.957031 88.5625 313.773438 87.753906 C 311.054688 86.75 306.65625 89.925781 303.554688 94.570312 C 302.824219 95.667969 303.011719 96.109375 304.304688 96.355469 " fill-opacity="1" fill-rule="evenodd"/><path fill="#231f20" d="M 220.097656 116.980469 C 215.253906 119.765625 211.792969 123.9375 212.617188 126.714844 C 213.273438 128.945312 216.328125 130.472656 218.507812 129.667969 C 221.230469 128.664062 222.503906 123.390625 221.832031 117.847656 C 221.675781 116.542969 221.242188 116.320312 220.097656 116.980469 " fill-opacity="1" fill-rule="evenodd"/><path fill="#231f20" d="M 250.144531 117.257812 C 249.714844 122.828125 251.207031 128.035156 253.960938 128.929688 C 256.175781 129.640625 259.164062 127.984375 259.726562 125.730469 C 260.429688 122.917969 256.796875 118.894531 251.839844 116.316406 C 250.671875 115.710938 250.246094 115.945312 250.144531 117.257812 " fill-opacity="1" fill-rule="evenodd"/><path fill="#231f20" d="M 290.171875 116.003906 C 287.089844 120.660156 285.867188 125.941406 287.847656 128.058594 C 289.433594 129.753906 292.847656 129.753906 294.4375 128.058594 C 296.417969 125.941406 295.195312 120.660156 292.113281 116.003906 C 291.386719 114.902344 290.902344 114.902344 290.171875 116.003906 " fill-opacity="1" fill-rule="evenodd"/><path fill="#231f20" d="M 241.746094 150.601562 C 237.132812 147.445312 231.871094 146.136719 229.71875 148.078125 C 227.996094 149.640625 227.941406 153.054688 229.613281 154.667969 C 231.695312 156.683594 237 155.542969 241.710938 152.535156 C 242.820312 151.824219 242.832031 151.34375 241.746094 150.601562 " fill-opacity="1" fill-rule="evenodd"/><path fill="#231f20" d="M 274.046875 145.308594 C 269.433594 148.464844 266.308594 152.898438 267.34375 155.601562 C 268.179688 157.773438 271.339844 159.058594 273.453125 158.085938 C 276.085938 156.871094 276.9375 151.515625 275.839844 146.042969 C 275.582031 144.75 275.132812 144.566406 274.046875 145.308594 " fill-opacity="1" fill-rule="evenodd"/><path fill="#231f20" d="M 308.730469 145.214844 C 305.648438 149.871094 304.421875 155.15625 306.402344 157.273438 C 307.992188 158.96875 311.40625 158.96875 312.996094 157.273438 C 314.976562 155.15625 313.753906 149.871094 310.667969 145.214844 C 309.9375 144.117188 309.460938 144.117188 308.730469 145.214844 " fill-opacity="1" fill-rule="evenodd"/><path fill="#231f20" d="M 224.992188 172.222656 C 219.550781 173.5 215.039062 176.507812 215.03125 179.40625 C 215.023438 181.730469 217.511719 184.070312 219.835938 183.921875 C 222.726562 183.738281 225.453125 179.050781 226.40625 173.546875 C 226.628906 172.246094 226.273438 171.917969 224.992188 172.222656 " fill-opacity="1" fill-rule="evenodd"/><path fill="#231f20" d="M 250.074219 176.078125 C 250.03125 181.660156 251.886719 186.753906 254.703125 187.449219 C 256.960938 188.007812 259.824219 186.144531 260.230469 183.855469 C 260.734375 181.003906 256.824219 177.242188 251.699219 175.019531 C 250.488281 174.496094 250.082031 174.757812 250.074219 176.078125 " fill-opacity="1" fill-rule="evenodd"/><path fill="#231f20" d="M 297.714844 183.445312 C 295.601562 178.273438 291.925781 174.285156 289.066406 174.726562 C 286.761719 175.082031 284.835938 177.898438 285.347656 180.171875 C 285.980469 183 291.035156 184.960938 296.621094 185.042969 C 297.941406 185.066406 298.210938 184.667969 297.714844 183.445312 " fill-opacity="1" fill-rule="evenodd"/><path fill="#231f20" d="M 316.265625 68.234375 C 321.851562 68.050781 326.867188 65.988281 327.445312 63.148438 C 327.910156 60.867188 325.933594 58.089844 323.628906 57.777344 C 320.753906 57.390625 317.15625 61.445312 315.144531 66.65625 C 314.667969 67.886719 314.949219 68.28125 316.265625 68.234375 " fill-opacity="1" fill-rule="evenodd"/><path fill="#231f20" d="M 346.160156 62.128906 C 348.730469 67.085938 352.75 70.726562 355.5625 70.03125 C 357.820312 69.46875 359.484375 66.492188 358.773438 64.277344 C 357.890625 61.515625 352.675781 60.011719 347.105469 60.433594 C 345.792969 60.535156 345.558594 60.957031 346.160156 62.128906 " fill-opacity="1" fill-rule="evenodd"/><path fill="#231f20" d="M 338.390625 86.789062 C 335.308594 91.445312 334.085938 96.726562 336.066406 98.84375 C 337.65625 100.542969 341.070312 100.542969 342.660156 98.84375 C 344.640625 96.726562 343.414062 91.445312 340.332031 86.789062 C 339.601562 85.691406 339.117188 85.691406 338.390625 86.789062 " fill-opacity="1" fill-rule="evenodd"/><g clip-path="url(#c8063a3f2c)"><path fill="#231f20" d="M 374.984375 97.640625 C 374.878906 92.054688 372.890625 87.011719 370.054688 86.394531 C 367.78125 85.898438 364.972656 87.835938 364.628906 90.132812 C 364.199219 93 368.207031 96.652344 373.390625 98.738281 C 374.613281 99.230469 375.011719 98.957031 374.984375 97.640625 " fill-opacity="1" fill-rule="evenodd"/></g><path fill="#231f20" d="M 323.988281 116.980469 C 319.144531 119.765625 315.683594 123.9375 316.503906 126.714844 C 317.164062 128.945312 320.21875 130.472656 322.398438 129.667969 C 325.117188 128.664062 326.390625 123.390625 325.722656 117.847656 C 325.566406 116.542969 325.132812 116.320312 323.988281 116.980469 " fill-opacity="1" fill-rule="evenodd"/><path fill="#231f20" d="M 349.300781 117.257812 C 348.871094 122.828125 350.363281 128.035156 353.121094 128.929688 C 355.335938 129.640625 358.320312 127.984375 358.882812 125.730469 C 359.589844 122.917969 355.957031 118.894531 350.996094 116.316406 C 349.828125 115.710938 349.40625 115.945312 349.300781 117.257812 " fill-opacity="1" fill-rule="evenodd"/><path fill="#231f20" d="M 345.632812 150.601562 C 341.023438 147.445312 335.757812 146.136719 333.609375 148.078125 C 331.886719 149.640625 331.832031 153.054688 333.503906 154.667969 C 335.585938 156.683594 340.890625 155.542969 345.601562 152.535156 C 346.714844 151.824219 346.722656 151.34375 345.632812 150.601562 " fill-opacity="1" fill-rule="evenodd"/><g clip-path="url(#4c1e675ab7)"><path fill="#231f20" d="M 372.722656 145.308594 C 368.113281 148.464844 364.984375 152.898438 366.023438 155.601562 C 366.855469 157.773438 370.019531 159.058594 372.132812 158.085938 C 374.761719 156.871094 375.621094 151.515625 374.515625 146.042969 C 374.257812 144.75 373.8125 144.566406 372.722656 145.308594 " fill-opacity="1" fill-rule="evenodd"/></g><path fill="#231f20" d="M 328.882812 172.222656 C 323.441406 173.5 318.929688 176.507812 318.921875 179.40625 C 318.914062 181.730469 321.402344 184.070312 323.722656 183.921875 C 326.617188 183.738281 329.34375 179.050781 330.292969 173.546875 C 330.515625 172.246094 330.164062 171.917969 328.882812 172.222656 " fill-opacity="1" fill-rule="evenodd"/><path fill="#231f20" d="M 344.753906 180.855469 C 348.988281 184.5 354.074219 186.378906 356.425781 184.683594 C 358.308594 183.320312 358.742188 179.9375 357.257812 178.148438 C 355.410156 175.914062 350.011719 176.464844 344.996094 178.929688 C 343.816406 179.515625 343.757812 179.992188 344.753906 180.855469 " fill-opacity="1" fill-rule="evenodd"/><path fill="#231f20" d="M 310.796875 203.039062 C 308.671875 208.203125 308.492188 213.621094 310.847656 215.316406 C 312.734375 216.671875 316.085938 216.015625 317.316406 214.039062 C 318.847656 211.582031 316.621094 206.632812 312.699219 202.660156 C 311.769531 201.726562 311.296875 201.816406 310.796875 203.039062 " fill-opacity="1" fill-rule="evenodd"/><path fill="#231f20" d="M 348.707031 207.316406 C 344 204.308594 338.695312 203.171875 336.613281 205.183594 C 334.9375 206.804688 334.992188 210.210938 336.71875 211.769531 C 338.867188 213.71875 344.128906 212.40625 348.742188 209.25 C 349.828125 208.507812 349.820312 208.019531 348.707031 207.316406 " fill-opacity="1" fill-rule="evenodd"/><path fill="#231f20" d="M 292.667969 231.351562 C 289.585938 236.003906 288.359375 241.289062 290.339844 243.40625 C 291.925781 245.101562 295.34375 245.101562 296.929688 243.40625 C 298.910156 241.289062 297.683594 236.003906 294.605469 231.351562 C 293.878906 230.25 293.394531 230.25 292.667969 231.351562 " fill-opacity="1" fill-rule="evenodd"/><path fill="#231f20" d="M 327.734375 242.199219 C 327.628906 236.617188 325.636719 231.574219 322.808594 230.957031 C 320.535156 230.457031 317.726562 232.394531 317.378906 234.695312 C 316.949219 237.558594 320.960938 241.214844 326.140625 243.296875 C 327.367188 243.792969 327.761719 243.519531 327.734375 242.199219 " fill-opacity="1" fill-rule="evenodd"/><path fill="#231f20" d="M 350.902344 240.917969 C 356.390625 241.953125 361.738281 241.035156 362.921875 238.390625 C 363.875 236.265625 362.550781 233.121094 360.371094 232.316406 C 357.652344 231.308594 353.253906 234.484375 350.152344 239.128906 C 349.417969 240.226562 349.605469 240.671875 350.902344 240.917969 " fill-opacity="1" fill-rule="evenodd"/><path fill="#231f20" d="M 278.261719 261.539062 C 273.421875 264.324219 269.957031 268.496094 270.777344 271.277344 C 271.4375 273.503906 274.488281 275.035156 276.675781 274.226562 C 279.394531 273.222656 280.664062 267.953125 279.996094 262.40625 C 279.835938 261.101562 279.40625 260.882812 278.261719 261.539062 " fill-opacity="1" fill-rule="evenodd"/><path fill="#231f20" d="M 305.679688 261.292969 C 305.246094 266.863281 306.738281 272.070312 309.496094 272.964844 C 311.714844 273.675781 314.699219 272.019531 315.261719 269.765625 C 315.96875 266.957031 312.332031 262.929688 307.378906 260.351562 C 306.207031 259.746094 305.785156 259.980469 305.679688 261.292969 " fill-opacity="1" fill-rule="evenodd"/><path fill="#231f20" d="M 342.023438 260.035156 C 338.941406 264.691406 337.722656 269.976562 339.699219 272.09375 C 341.289062 273.789062 344.703125 273.789062 346.292969 272.09375 C 348.273438 269.976562 347.046875 264.691406 343.964844 260.035156 C 343.238281 258.9375 342.753906 258.9375 342.023438 260.035156 " fill-opacity="1" fill-rule="evenodd"/><path fill="#231f20" d="M 299.90625 295.160156 C 295.292969 292.003906 290.03125 290.695312 287.882812 292.640625 C 286.160156 294.203125 286.101562 297.613281 287.78125 299.230469 C 289.863281 301.242188 295.167969 300.101562 299.878906 297.097656 C 300.984375 296.386719 300.992188 295.90625 299.90625 295.160156 " fill-opacity="1" fill-rule="evenodd"/><path fill="#231f20" d="M 326.949219 289.871094 C 322.339844 293.027344 319.214844 297.457031 320.25 300.164062 C 321.082031 302.332031 324.242188 303.621094 326.359375 302.644531 C 328.988281 301.429688 329.84375 296.078125 328.746094 290.601562 C 328.484375 289.308594 328.039062 289.125 326.949219 289.871094 " fill-opacity="1" fill-rule="evenodd"/><path fill="#231f20" d="M 283.152344 316.777344 C 277.71875 318.058594 273.199219 321.066406 273.195312 323.964844 C 273.1875 326.289062 275.675781 328.628906 277.996094 328.480469 C 280.886719 328.296875 283.617188 323.609375 284.566406 318.105469 C 284.789062 316.808594 284.4375 316.476562 283.152344 316.777344 " fill-opacity="1" fill-rule="evenodd"/><path fill="#231f20" d="M 305.867188 325.414062 C 310.097656 329.054688 315.183594 330.941406 317.535156 329.242188 C 319.417969 327.882812 319.851562 324.5 318.367188 322.707031 C 316.519531 320.476562 311.121094 321.023438 306.105469 323.492188 C 304.925781 324.074219 304.867188 324.554688 305.867188 325.414062 " fill-opacity="1" fill-rule="evenodd"/><g clip-path="url(#d095b17586)"><path fill="#231f20" d="M 361.679688 323.898438 C 365.339844 328.117188 370.101562 330.714844 372.675781 329.375 C 374.738281 328.300781 375.65625 325.015625 374.445312 323.027344 C 372.941406 320.554688 367.519531 320.3125 362.199219 322.03125 C 360.949219 322.433594 360.816406 322.902344 361.679688 323.898438 " fill-opacity="1" fill-rule="evenodd"/></g><g clip-path="url(#9be8e870c6)"><path fill="#231f20" d="M 300.546875 341.046875 C 296.914062 345.292969 295.050781 350.382812 296.75 352.726562 C 298.121094 354.605469 301.507812 355.027344 303.292969 353.539062 C 305.519531 351.679688 304.953125 346.289062 302.46875 341.285156 C 301.882812 340.109375 301.402344 340.046875 300.546875 341.046875 " fill-opacity="1" fill-rule="evenodd"/></g><g clip-path="url(#cc77aef271)"><path fill="#231f20" d="M 326.480469 354.433594 C 332.066406 354.246094 337.082031 352.183594 337.660156 349.34375 C 338.125 347.066406 336.148438 344.285156 333.839844 343.976562 C 330.972656 343.585938 327.371094 347.644531 325.355469 352.855469 C 324.878906 354.082031 325.164062 354.476562 326.480469 354.433594 " fill-opacity="1" fill-rule="evenodd"/></g><g clip-path="url(#8b0bb16536)"><path fill="#231f20" d="M 362.207031 346.449219 C 364.777344 351.40625 368.796875 355.050781 371.609375 354.351562 C 373.867188 353.789062 375.53125 350.8125 374.820312 348.59375 C 373.933594 345.835938 368.722656 344.332031 363.152344 344.753906 C 361.839844 344.851562 361.605469 345.277344 362.207031 346.449219 " fill-opacity="1" fill-rule="evenodd"/></g><path fill="#231f20" d="M 274.96875 200.21875 C 271.886719 204.878906 270.660156 210.160156 272.640625 212.277344 C 274.230469 213.972656 277.644531 213.972656 279.234375 212.277344 C 281.214844 210.160156 279.988281 204.878906 276.90625 200.21875 C 276.179688 199.121094 275.699219 199.121094 274.96875 200.21875 " fill-opacity="1" fill-rule="evenodd"/><g clip-path="url(#8d876caaee)"><path fill="#231f20" d="M 161.414062 349.0625 C 156.707031 346.058594 151.398438 344.921875 149.316406 346.933594 C 147.640625 348.550781 147.699219 351.960938 149.421875 353.523438 C 151.570312 355.464844 156.835938 354.15625 161.445312 351 C 162.53125 350.257812 162.523438 349.773438 161.414062 349.0625 " fill-opacity="1" fill-rule="evenodd"/></g><g clip-path="url(#948356c5bd)"><path fill="#231f20" d="M 184.953125 353.847656 C 189.042969 350.046875 191.476562 345.199219 190.054688 342.679688 C 188.90625 340.652344 185.589844 339.851562 183.644531 341.128906 C 181.222656 342.71875 181.171875 348.140625 183.070312 353.390625 C 183.515625 354.632812 183.984375 354.746094 184.953125 353.847656 " fill-opacity="1" fill-rule="evenodd"/></g><g clip-path="url(#7840157929)"><path fill="#231f20" d="M 215.980469 346.449219 C 218.546875 351.40625 222.566406 355.050781 225.375 354.351562 C 227.632812 353.789062 229.300781 350.8125 228.589844 348.59375 C 227.703125 345.835938 222.496094 344.332031 216.921875 344.753906 C 215.605469 344.851562 215.371094 345.277344 215.980469 346.449219 " fill-opacity="1" fill-rule="evenodd"/></g><g clip-path="url(#f853199a3e)"><path fill="#231f20" d="M 265.300781 349.0625 C 260.589844 346.058594 255.289062 344.921875 253.203125 346.933594 C 251.53125 348.550781 251.585938 351.960938 253.3125 353.523438 C 255.460938 355.464844 260.726562 354.15625 265.335938 351 C 266.421875 350.257812 266.414062 349.773438 265.300781 349.0625 " fill-opacity="1" fill-rule="evenodd"/></g><g clip-path="url(#de1bb8b9f6)"><path fill="#231f20" d="M 5.277344 341.046875 C 1.644531 345.292969 -0.222656 350.382812 1.480469 352.726562 C 2.847656 354.605469 6.238281 355.027344 8.023438 353.539062 C 10.25 351.679688 9.6875 346.289062 7.199219 341.285156 C 6.613281 340.109375 6.132812 340.046875 5.277344 341.046875 " fill-opacity="1" fill-rule="evenodd"/></g><g clip-path="url(#c2766dfaa2)"><path fill="#231f20" d="M 45.539062 346.15625 C 40.117188 344.792969 34.726562 345.394531 33.386719 347.960938 C 32.3125 350.027344 33.445312 353.246094 35.574219 354.179688 C 38.230469 355.34375 42.808594 352.4375 46.179688 347.984375 C 46.976562 346.933594 46.816406 346.476562 45.539062 346.15625 " fill-opacity="1" fill-rule="evenodd"/></g><g clip-path="url(#a35dd6106a)"><path fill="#231f20" d="M 77.449219 353.550781 C 80.210938 348.695312 81.082031 343.34375 78.964844 341.363281 C 77.265625 339.777344 73.859375 340.003906 72.386719 341.804688 C 70.554688 344.046875 72.132812 349.234375 75.515625 353.675781 C 76.316406 354.722656 76.796875 354.695312 77.449219 353.550781 " fill-opacity="1" fill-rule="evenodd"/></g><g clip-path="url(#dbf290fd24)"><path fill="#231f20" d="M 116.859375 343.210938 C 111.332031 344.03125 106.582031 346.648438 106.328125 349.535156 C 106.128906 351.851562 108.40625 354.390625 110.734375 354.4375 C 113.632812 354.496094 116.746094 350.054688 118.152344 344.652344 C 118.484375 343.375 118.164062 343.015625 116.859375 343.210938 " fill-opacity="1" fill-rule="evenodd"/></g><path fill="#231f20" d="M 37.070312 237.683594 C 42.558594 238.71875 47.902344 237.800781 49.089844 235.160156 C 50.042969 233.035156 48.71875 229.890625 46.539062 229.082031 C 43.820312 228.078125 39.417969 231.25 36.320312 235.898438 C 35.585938 236.992188 35.773438 237.4375 37.070312 237.683594 " fill-opacity="1" fill-rule="evenodd"/><path fill="#231f20" d="M 30.972656 204.082031 C 26.261719 201.078125 20.957031 199.941406 18.871094 201.953125 C 17.199219 203.570312 17.253906 206.976562 18.980469 208.539062 C 21.128906 210.484375 26.390625 209.171875 31 206.015625 C 32.085938 205.273438 32.082031 204.789062 30.972656 204.082031 " fill-opacity="1" fill-rule="evenodd"/><path fill="#231f20" d="M 11.234375 238.96875 C 11.125 233.382812 9.132812 228.339844 6.304688 227.722656 C 4.03125 227.222656 1.21875 229.164062 0.875 231.460938 C 0.449219 234.324219 4.457031 237.980469 9.640625 240.0625 C 10.863281 240.558594 11.257812 240.285156 11.234375 238.96875 " fill-opacity="1" fill-rule="evenodd"/><path fill="#231f20" d="M 23.761719 257.328125 C 20.679688 261.988281 19.453125 267.269531 21.433594 269.386719 C 23.023438 271.082031 26.4375 271.082031 28.027344 269.386719 C 30.003906 267.269531 28.78125 261.988281 25.699219 257.328125 C 24.972656 256.230469 24.488281 256.230469 23.761719 257.328125 " fill-opacity="1" fill-rule="evenodd"/><path fill="#231f20" d="M 7.742188 286.636719 C 3.132812 289.792969 0.0078125 294.226562 1.042969 296.929688 C 1.875 299.101562 5.039062 300.386719 7.148438 299.414062 C 9.78125 298.199219 10.636719 292.84375 9.539062 287.371094 C 9.28125 286.074219 8.828125 285.894531 7.742188 286.636719 " fill-opacity="1" fill-rule="evenodd"/><path fill="#231f20" d="M 20.09375 326.316406 C 25.683594 326.257812 30.746094 324.308594 31.382812 321.484375 C 31.902344 319.214844 29.988281 316.390625 27.6875 316.027344 C 24.824219 315.574219 21.136719 319.550781 19.003906 324.714844 C 18.503906 325.933594 18.773438 326.332031 20.09375 326.316406 " fill-opacity="1" fill-rule="evenodd"/><path fill="#231f20" d="M 48.945312 297.707031 C 44.339844 294.554688 39.070312 293.246094 36.925781 295.1875 C 35.199219 296.75 35.144531 300.164062 36.820312 301.777344 C 38.902344 303.792969 44.207031 302.652344 48.917969 299.644531 C 50.027344 298.933594 50.035156 298.449219 48.945312 297.707031 " fill-opacity="1" fill-rule="evenodd"/><path fill="#231f20" d="M 115.554688 69.660156 C 117.246094 64.335938 116.976562 58.917969 114.492188 57.425781 C 112.5 56.226562 109.21875 57.164062 108.152344 59.230469 C 106.828125 61.808594 109.449219 66.554688 113.695312 70.191406 C 114.695312 71.046875 115.15625 70.914062 115.554688 69.660156 " fill-opacity="1" fill-rule="evenodd"/><path fill="#231f20" d="M 7.742188 6.808594 C 3.132812 9.964844 0.0078125 14.394531 1.042969 17.101562 C 1.875 19.269531 5.039062 20.558594 7.148438 19.582031 C 9.78125 18.367188 10.636719 13.015625 9.539062 7.539062 C 9.28125 6.246094 8.828125 6.0625 7.742188 6.808594 " fill-opacity="1" fill-rule="evenodd"/><path fill="#231f20" d="M 37.195312 7.195312 C 34.117188 11.851562 32.890625 17.132812 34.871094 19.253906 C 36.460938 20.949219 39.871094 20.949219 41.460938 19.253906 C 43.441406 17.132812 42.21875 11.851562 39.132812 7.195312 C 38.410156 6.097656 37.925781 6.097656 37.195312 7.195312 " fill-opacity="1" fill-rule="evenodd"/><path fill="#231f20" d="M 14.972656 43.714844 C 20.558594 43.652344 25.625 41.707031 26.265625 38.882812 C 26.78125 36.613281 24.867188 33.785156 22.566406 33.425781 C 19.703125 32.972656 16.015625 36.949219 13.886719 42.113281 C 13.382812 43.332031 13.65625 43.730469 14.972656 43.714844 " fill-opacity="1" fill-rule="evenodd"/><path fill="#231f20" d="M 74.101562 9.804688 C 69.488281 6.648438 64.226562 5.34375 62.074219 7.285156 C 60.351562 8.847656 60.296875 12.257812 61.96875 13.875 C 64.054688 15.886719 69.359375 14.75 74.066406 11.742188 C 75.179688 11.03125 75.1875 10.550781 74.101562 9.804688 " fill-opacity="1" fill-rule="evenodd"/><path fill="#231f20" d="M 106.402344 6.808594 C 101.789062 9.964844 98.664062 14.394531 99.703125 17.101562 C 100.535156 19.269531 103.695312 20.558594 105.808594 19.582031 C 108.441406 18.367188 109.296875 13.015625 108.195312 7.539062 C 107.9375 6.246094 107.488281 6.0625 106.402344 6.808594 " fill-opacity="1" fill-rule="evenodd"/><path fill="#231f20" d="M 141.085938 7.195312 C 138.003906 11.851562 136.777344 17.132812 138.757812 19.253906 C 140.351562 20.949219 143.761719 20.949219 145.351562 19.253906 C 147.335938 17.132812 146.109375 11.851562 143.023438 7.195312 C 142.296875 6.097656 141.816406 6.097656 141.085938 7.195312 " fill-opacity="1" fill-rule="evenodd"/><path fill="#231f20" d="M 57.347656 30.945312 C 51.90625 32.222656 47.394531 35.234375 47.386719 38.128906 C 47.378906 40.457031 49.867188 42.792969 52.191406 42.648438 C 55.082031 42.460938 57.8125 37.773438 58.761719 32.273438 C 58.984375 30.972656 58.632812 30.644531 57.347656 30.945312 " fill-opacity="1" fill-rule="evenodd"/><path fill="#231f20" d="M 85.019531 33.558594 C 82.523438 38.554688 81.941406 43.945312 84.164062 45.808594 C 85.945312 47.304688 89.335938 46.890625 90.707031 45.015625 C 92.417969 42.675781 90.5625 37.578125 86.945312 33.324219 C 86.085938 32.324219 85.609375 32.382812 85.019531 33.558594 " fill-opacity="1" fill-rule="evenodd"/><path fill="#231f20" d="M 118.863281 43.714844 C 124.449219 43.652344 129.511719 41.707031 130.152344 38.882812 C 130.667969 36.613281 128.753906 33.785156 126.457031 33.425781 C 123.59375 32.972656 119.90625 36.949219 117.773438 42.113281 C 117.273438 43.332031 117.542969 43.730469 118.863281 43.714844 " fill-opacity="1" fill-rule="evenodd"/><g clip-path="url(#bb1f88129c)"><path fill="#231f20" d="M 373.511719 30.945312 C 368.070312 32.222656 363.5625 35.234375 363.550781 38.128906 C 363.542969 40.457031 366.03125 42.792969 368.355469 42.648438 C 371.246094 42.460938 373.976562 37.773438 374.921875 32.273438 C 375.148438 30.972656 374.796875 30.644531 373.511719 30.945312 " fill-opacity="1" fill-rule="evenodd"/></g><g clip-path="url(#ca1dfc6150)"><path fill="#231f20" d="M 367.980469 199.804688 C 365.855469 204.96875 365.679688 210.390625 368.03125 212.082031 C 369.921875 213.441406 373.269531 212.78125 374.5 210.808594 C 376.03125 208.351562 373.808594 203.40625 369.878906 199.429688 C 368.953125 198.492188 368.480469 198.585938 367.980469 199.804688 " fill-opacity="1" fill-rule="evenodd"/></g><g clip-path="url(#91326ea44c)"><path fill="#231f20" d="M 373.933594 262.46875 C 368.664062 260.617188 363.238281 260.714844 361.671875 263.152344 C 360.410156 265.109375 361.242188 268.417969 363.28125 269.542969 C 365.8125 270.945312 370.640625 268.46875 374.40625 264.34375 C 375.296875 263.371094 375.179688 262.902344 373.933594 262.46875 " fill-opacity="1" fill-rule="evenodd"/></g><path fill="#231f20" d="M 353.222656 289.777344 C 350.140625 294.433594 348.914062 299.71875 350.894531 301.832031 C 352.484375 303.527344 355.898438 303.527344 357.484375 301.832031 C 359.46875 299.71875 358.242188 294.433594 355.160156 289.777344 C 354.433594 288.675781 353.949219 288.675781 353.222656 289.777344 " fill-opacity="1" fill-rule="evenodd"/><path fill="#231f20" d="M 335.449219 317.40625 C 335.40625 322.988281 337.257812 328.082031 340.074219 328.773438 C 342.332031 329.335938 345.195312 327.472656 345.601562 325.183594 C 346.105469 322.328125 342.199219 318.570312 337.074219 316.347656 C 335.859375 315.820312 335.457031 316.085938 335.449219 317.40625 " fill-opacity="1" fill-rule="evenodd"/><path fill="#231f20" d="M 142.363281 62.128906 C 144.929688 67.085938 148.949219 70.726562 151.765625 70.03125 C 154.023438 69.46875 155.683594 66.492188 154.972656 64.277344 C 154.09375 61.515625 148.878906 60.011719 143.308594 60.433594 C 141.996094 60.535156 141.757812 60.957031 142.363281 62.128906 " fill-opacity="1" fill-rule="evenodd"/><path fill="#231f20" d="M 1.160156 62.128906 C 3.730469 67.085938 7.746094 70.726562 10.5625 70.03125 C 12.820312 69.46875 14.480469 66.492188 13.769531 64.277344 C 12.890625 61.515625 7.675781 60.011719 2.105469 60.433594 C 0.792969 60.535156 0.554688 60.957031 1.160156 62.128906 " fill-opacity="1" fill-rule="evenodd"/></svg>